<svg xmlns="http://www.w3.org/2000/svg" xmlns:xlink="http://www.w3.org/1999/xlink" version="1.1" x="0px" y="0px"
  viewBox="0 0 100 100" style="enable-background:new 0 0 100 100;" xml:space="preserve">
  <path d="M53,13c0,1.657-1.343,3-3,3s-3-1.343-3-3c0-3,3-6,3-6S53,10,53,13z" />
  <path fill="#d40000" d="M41,19c0,1.657-1.343,3-3,3s-3-1.343-3-3c0-3,3-6,3-6S41,16,41,19z" />
  <path fill="#d40000" d="M29,19c0,1.657-1.343,3-3,3s-3-1.343-3-3c0-3,3-6,3-6S29,16,29,19z" />
  <path fill="#d40000" d="M17,19c0,1.657-1.343,3-3,3s-3-1.343-3-3c0-3,3-6,3-6S17,16,17,19z" />
  <path fill="#00aa00" d="M62,13c0,0,3,3,3,6c0,1.657-1.343,3-3,3s-3-1.343-3-3C59,16,62,13,62,13z" />
  <path fill="#00aa00" d="M74,13c0,0,3,3,3,6c0,1.657-1.343,3-3,3s-3-1.343-3-3C71,16,74,13,74,13z" />
  <path fill="#00aa00" d="M86,13c0,0,3,3,3,6c0,1.657-1.343,3-3,3s-3-1.343-3-3C83,16,86,13,86,13z" />
  <path d="M71,94H29v-6c0-1.657,1.343-3,3-3h36c1.657,0,3,1.343,3,3V94z" />
  <path fill="#00aa00" d="M59,50.5V28c0-0.828,0.672-1.5,1.5-1.5h3c0.828,0,1.5,0.672,1.5,1.5v22.5H59z" />
  <path fill="#00aa00" d="M83,50.5V28c0-0.828,0.672-1.5,1.5-1.5h3c0.828,0,1.5,0.672,1.5,1.5v22.5H83z" />
  <path fill="#00aa00" d="M71,50.5V28c0-0.828,0.672-1.5,1.5-1.5h3c0.828,0,1.5,0.672,1.5,1.5v22.5H71z" />
  <path d="M47,50.5V22c0-0.828,0.672-1.5,1.5-1.5h3c0.828,0,1.5,0.672,1.5,1.5v28.5H47z" />
  <path fill="#d40000" d="M35,50.5V28c0-0.828,0.672-1.5,1.5-1.5h3c0.828,0,1.5,0.672,1.5,1.5v22.5H35z" />
  <path fill="#d40000" d="M11,50.5V28c0-0.828,0.672-1.5,1.5-1.5h3c0.828,0,1.5,0.672,1.5,1.5v22.5H11z" />
  <path fill="#d40000" d="M23,50.5V28c0-0.828,0.672-1.5,1.5-1.5h3c0.828,0,1.5,0.672,1.5,1.5v22.5H23z" />
  <path
    d="M92,58c0,1.657-1.343,3-3,3v3.295c0,3.138-2.425,5.667-5.548,5.982c-9.444,0.951-18.106,4.366-22.108,10.224H38.656  c-4.003-5.857-12.664-9.273-22.108-10.224C13.425,69.962,11,67.433,11,64.295V61c-1.657,0-3-1.343-3-3c0-1.657,1.343-3,3-3h78  C90.657,55,92,56.343,92,58z" />
</svg>