<svg xmlns="http://www.w3.org/2000/svg" xmlns:xlink="http://www.w3.org/1999/xlink" version="1.1" x="0px" y="0px"
  viewBox="25 10 50 100" xml:space="preserve">
  <g>
    <path fill="rgb(27,154,58)"
      d="M70.5,68.4c-3.8-4.6-7.7-9.2-11.5-13.9c-0.4-0.5-0.1-1.2,0.5-1.2h5c0.6,0,0.9-0.7,0.5-1.2c-2.9-3.6-5.9-7.1-8.8-10.7   c-0.4-0.5-0.1-1.2,0.5-1.2h2.3c0.6,0,0.9-0.7,0.5-1.2l-9.1-11c-0.3-0.3-0.8-0.3-1.1,0l-9.1,11c-0.4,0.5-0.1,1.2,0.5,1.2h2.3   c0.6,0,0.9,0.7,0.5,1.2c-2.9,3.6-5.9,7.1-8.8,10.7c-0.4,0.5-0.1,1.2,0.5,1.2h5c0.6,0,0.9,0.7,0.5,1.2c-3.8,4.6-7.7,9.2-11.5,13.9   c-0.4,0.5-0.1,1.2,0.5,1.2h39.9C70.5,69.6,70.9,68.9,70.5,68.4z" />
    <path fill="#502d16"
      d="M52.3,70.4h-4.7c-0.5,0-0.9,0.4-0.9,0.9v5.9c0,0.5,0.4,0.9,0.9,0.9h4.7c0.5,0,0.9-0.4,0.9-0.9v-5.9   C53.2,70.8,52.8,70.4,52.3,70.4z" />
    <path fill="#ffba00"
      d="M48.1,25.7c0.1,0.1,0.1,0.2,0.1,0.3l-0.3,1.5c-0.1,0.3,0.3,0.5,0.5,0.4l1.3-0.7c0.1-0.1,0.2-0.1,0.4,0l1.3,0.7   c0.3,0.1,0.6-0.1,0.5-0.4L51.8,26c0-0.1,0-0.2,0.1-0.3l1.1-1.1c0.2-0.2,0.1-0.6-0.2-0.6l-1.5-0.2c-0.1,0-0.2-0.1-0.3-0.2l-0.7-1.4   c-0.1-0.3-0.5-0.3-0.7,0L49,23.5c-0.1,0.1-0.2,0.2-0.3,0.2L47.2,24c-0.3,0-0.4,0.4-0.2,0.6L48.1,25.7z" />
  </g>
</svg>